<svg width="249" height="249" xmlns="http://www.w3.org/2000/svg" xmlns:xlink="http://www.w3.org/1999/xlink" xml:space="preserve" overflow="hidden"><g transform="translate(-592 -312)"><path d="M776.156 426.125C766.041 426.125 758 418.084 758 407.969 758 397.853 766.041 389.812 776.156 389.812 786.272 389.812 794.312 397.853 794.312 407.969 794.312 418.084 786.272 426.125 776.156 426.125ZM804.688 407.969C804.688 392.147 791.978 379.438 776.156 379.438 760.334 379.438 747.625 392.147 747.625 407.969 747.625 420.938 756.444 432.091 768.375 435.462L768.375 496.156C768.375 517.684 750.997 535.062 729.469 535.062 707.941 535.062 690.562 517.684 690.562 496.156L690.562 469.7C717.019 465.809 737.25 443.244 737.25 415.75 737.25 411.859 735.175 408.487 732.062 406.931L732.062 343.125C732.062 335.344 726.097 328.859 718.575 327.822 717.537 324.709 714.684 322.375 711.312 322.375L708.719 322.375C703.013 322.375 698.344 327.044 698.344 332.75 698.344 338.456 703.013 343.125 708.719 343.125L711.312 343.125C714.425 343.125 717.278 341.05 718.575 338.456 720.391 339.234 721.688 341.05 721.688 343.125L721.688 406.931C718.575 408.747 716.5 412.119 716.5 415.75 716.5 434.425 701.456 449.469 682.781 449.469 664.106 449.469 649.062 434.425 649.062 415.75 649.062 411.859 646.987 408.487 643.875 406.931L643.875 343.125C643.875 341.05 645.172 339.234 646.987 338.456 648.284 341.309 650.878 343.125 654.25 343.125L656.844 343.125C662.55 343.125 667.219 338.456 667.219 332.75 667.219 327.044 662.55 322.375 656.844 322.375L654.25 322.375C650.878 322.375 648.025 324.709 646.987 327.822 639.466 328.859 633.5 335.344 633.5 343.125L633.5 406.931C630.388 408.747 628.312 412.119 628.312 415.75 628.312 443.244 648.544 465.809 675 469.7L675 496.156C675 526.244 699.381 550.625 729.469 550.625 759.556 550.625 783.938 526.244 783.938 496.156L783.938 435.462C795.869 432.091 804.688 420.938 804.688 407.969Z" stroke="#FFFFFF" stroke-width="2.59372" fill="#215F9A"/><path d="M789.125 407.969C789.125 415.131 783.319 420.938 776.156 420.938 768.994 420.938 763.188 415.131 763.188 407.969 763.188 400.806 768.994 395 776.156 395 783.319 395 789.125 400.806 789.125 407.969Z" stroke="#FFFFFF" stroke-width="2.59372" fill="#215F9A"/></g></svg>