<svg width="249" height="249" xmlns="http://www.w3.org/2000/svg" xmlns:xlink="http://www.w3.org/1999/xlink" xml:space="preserve" overflow="hidden"><g transform="translate(-282 -115)"><path d="M362.406 286.188C362.406 296.215 354.277 304.344 344.25 304.344 334.223 304.344 326.094 296.215 326.094 286.188 326.094 276.16 334.223 268.031 344.25 268.031 354.277 268.031 362.406 276.16 362.406 286.188Z" stroke="#FFFFFF" stroke-width="6.70045" fill="#215F9A"/><path d="M492.094 286.188C492.094 296.215 483.965 304.344 473.938 304.344 463.91 304.344 455.781 296.215 455.781 286.188 455.781 276.16 463.91 268.031 473.938 268.031 483.965 268.031 492.094 276.16 492.094 286.188Z" stroke="#FFFFFF" stroke-width="6.70045" fill="#215F9A"/><path d="M506.1 241.575 492.353 231.2C490.55 229.859 489.267 227.934 488.722 225.753L483.534 207.856C480.889 199.01 472.795 192.914 463.562 192.812L458.375 192.812 458.375 179.844C458.375 175.546 454.891 172.062 450.594 172.062L445.406 172.062C441.109 172.062 437.625 175.546 437.625 179.844L437.625 192.812 437.625 192.812 437.625 187.625C437.625 181.895 432.98 177.25 427.25 177.25L313.125 177.25C307.395 177.25 302.75 181.895 302.75 187.625L302.75 275.812C302.75 281.542 307.395 286.188 313.125 286.188L318.312 286.188C318.312 271.863 329.925 260.25 344.25 260.25 358.575 260.25 370.188 271.863 370.188 286.188L448 286.188C448 271.863 459.612 260.25 473.938 260.25 488.263 260.25 499.875 271.863 499.875 286.188 505.605 286.188 510.25 281.542 510.25 275.812L510.25 249.875C510.25 246.609 508.712 243.534 506.1 241.575ZM407.148 231.2 399.367 244.688 385.75 236.906 385.75 252.469 370.188 252.469 370.188 236.751 356.57 244.532 348.789 231.044 362.406 223.263 348.789 215.482 356.57 201.994 370.188 209.776 370.188 194.057 385.75 194.057 385.75 209.802 399.367 202.02 407.148 215.508 393.531 223.289ZM448 229.125 448 203.188 463.562 203.188C468.189 203.124 472.26 206.23 473.419 210.709L478.606 228.606C478.606 228.866 478.866 228.866 478.866 229.125Z" stroke="#FFFFFF" stroke-width="6.70045" fill="#215F9A"/><path d="M448 164.281 448 151.312" stroke="#FFFFFF" stroke-width="6.70045" stroke-miterlimit="10" fill="none"/><path d="M459.672 166.875 468.75 157.797" stroke="#FFFFFF" stroke-width="6.70045" stroke-miterlimit="10"/><path d="M436.328 166.875 427.25 157.797" stroke="#FFFFFF" stroke-width="6.70045" stroke-miterlimit="10"/></g></svg>