<svg width="248" height="248" xmlns="http://www.w3.org/2000/svg" xmlns:xlink="http://www.w3.org/1999/xlink" xml:space="preserve" overflow="hidden"><g transform="translate(-81 -356)"><path d="M308.333 477.417 189.5 477.417 189.5 539.417C189.517 545.117 194.133 549.733 199.833 549.75L303.167 549.75 303.167 562.667 318.667 562.667 318.667 487.75C318.65 482.05 314.033 477.434 308.333 477.417Z" stroke="#FFFFFF" stroke-width="6.67354" fill="#215F9A"/><path d="M106.833 446.417C106.911 442.214 103.567 438.744 99.3649 438.667 99.2711 438.665 99.1772 438.665 99.0833 438.667 94.8809 438.589 91.4111 441.932 91.3333 446.135 91.3316 446.229 91.3316 446.323 91.3333 446.417L91.3333 562.667 106.833 562.667 106.833 536.833 181.75 536.833 181.75 511 106.833 480Z" stroke="#FFFFFF" stroke-width="6.67354" fill="#215F9A"/><path d="M147.852 465.244C147.852 473.804 140.912 480.744 132.352 480.744 123.791 480.744 116.852 473.804 116.852 465.244 116.852 456.684 123.791 449.744 132.352 449.744 140.912 449.744 147.852 456.684 147.852 465.244Z" stroke="#FFFFFF" stroke-width="6.67354" fill="#215F9A"/><path d="M143.028 487.202 181.75 503.335 181.75 475.35 176.805 473.283C163.635 467.845 148.544 474.063 143.028 487.202Z" stroke="#FFFFFF" stroke-width="6.67354" fill="#215F9A"/><path d="M272.167 394.75 215.333 394.75C212.48 394.75 210.167 397.063 210.167 399.917L210.167 440.537C210.167 443.391 212.48 445.704 215.333 445.704L272.167 445.704C275.02 445.704 277.333 443.391 277.333 440.537L277.333 399.917C277.333 397.063 275.02 394.75 272.167 394.75ZM272.75 422.066 263.657 422.066 257.119 429.243C256.317 430.122 254.955 430.185 254.075 429.384 253.783 429.117 253.569 428.775 253.458 428.395L250.237 417.365 242.471 437.892C242.155 438.731 241.351 439.286 240.454 439.284L240.268 439.284C239.306 439.198 238.519 438.482 238.343 437.533L233.417 411.25 230.299 420.583C230.008 421.468 229.183 422.066 228.253 422.069L215.333 422.069 215.333 417.76 226.7 417.76 231.952 402.001C232.335 400.875 233.558 400.271 234.685 400.654 235.419 400.903 235.963 401.528 236.108 402.291L241.133 429.196 248.467 409.821C248.887 408.708 250.13 408.146 251.243 408.566 251.877 408.805 252.362 409.328 252.551 409.979L256.514 423.5 261.107 418.478C261.512 418.024 262.091 417.763 262.699 417.76L272.748 417.76Z" stroke="#FFFFFF" stroke-width="6.67354" fill="#215F9A"/></g></svg>