<svg width="248" height="249" xmlns="http://www.w3.org/2000/svg" xmlns:xlink="http://www.w3.org/1999/xlink" xml:space="preserve" overflow="hidden"><g transform="translate(-855 -391)"><path d="M139.112 28.4167C139.112 39.8306 129.86 49.0833 118.446 49.0833 107.032 49.0833 97.7792 39.8306 97.7792 28.4167 97.7792 17.0028 107.032 7.75 118.446 7.75 129.86 7.75 139.112 17.0028 139.112 28.4167Z" stroke="#FFFFFF" stroke-width="17.2401" fill="#215F9A" transform="matrix(1 0 0 1.00403 855 391)"/><path d="M169.027 123.664C168.745 116.999 166.337 110.599 162.156 105.4L150.479 88.6083 137.562 69.9825C135.289 66.7533 133.197 63.2142 130.613 60.1917 127.261 56.2854 122.404 53.993 117.257 53.8883 112.59 53.9573 108.093 55.6571 104.548 58.6933 99.8717 62 79.5925 76.1825 74.1933 80.0833 67.8642 84.5267 66.5725 92.6642 73.005 97.8308 83.0283 105.736 93.2067 113.667 103.333 121.417L90.83 167.917 116.25 167.917 116.25 240.25 136.917 240.25 136.917 167.917 161.639 167.917 158.126 154.845C157.547 153.063 157.199 151.213 157.092 149.342 157.04 145.854 158.8 142.588 161.742 140.714L161.742 140.714C166.475 136.319 169.123 130.122 169.027 123.664ZM96.2808 89.6933 102.817 85.25 109.146 99.8975 109.146 99.8975Z" stroke="#FFFFFF" stroke-width="17.2401" fill="#215F9A" transform="matrix(1 0 0 1.00403 855 391)"/></g></svg>