<svg width="249" height="248" xmlns="http://www.w3.org/2000/svg" xmlns:xlink="http://www.w3.org/1999/xlink" xml:space="preserve" overflow="hidden"><g transform="translate(-545 -68)"><path d="M67.1667 93C67.1667 61.7417 92.7417 36.1667 124 36.1667 155.258 36.1667 180.833 61.7417 180.833 93 180.833 124.258 155.258 149.833 124 149.833 92.7417 149.833 67.1667 124.258 67.1667 93ZM196.333 93C196.333 53.2167 163.783 20.6667 124 20.6667 84.2167 20.6667 51.6667 53.2167 51.6667 93 51.6667 130.2 80.0833 160.942 116.25 164.817L116.25 191.167 95.5833 191.167 95.5833 206.667 116.25 206.667 116.25 227.333 131.75 227.333 131.75 206.667 152.417 206.667 152.417 191.167 131.75 191.167 131.75 164.817C167.917 160.942 196.333 130.2 196.333 93Z" stroke="#FFFFFF" stroke-width="2.58333" fill="#215F9A" transform="matrix(1.00403 0 0 1 545 68)"/></g></svg>