<svg width="249" height="248" xmlns="http://www.w3.org/2000/svg" xmlns:xlink="http://www.w3.org/1999/xlink" xml:space="preserve" overflow="hidden"><g transform="translate(-437 -404)"><path d="M196.979 53.6042C196.064 53.6036 195.15 53.6553 194.241 53.7592 194.345 52.8501 194.396 51.9358 194.396 51.0208 194.364 36.7536 182.772 25.2136 168.504 25.2458 154.237 25.2779 142.697 36.8698 142.729 51.1373 142.744 57.7393 145.286 64.0853 149.833 68.8717L68.8717 149.833C58.5706 139.962 42.2176 140.31 32.3462 150.611 22.4746 160.912 22.8228 177.265 33.1238 187.137 37.9388 191.751 44.3517 194.324 51.0208 194.318 51.9358 194.319 52.8501 194.267 53.7592 194.163 53.6553 195.072 53.6036 195.987 53.6042 196.902 53.5936 211.169 65.1509 222.744 79.4181 222.754 93.6856 222.765 105.26 211.208 105.271 196.94 105.276 190.312 102.732 183.934 98.1667 179.128L179.128 98.1667C189.429 108.038 205.782 107.69 215.654 97.3888 225.525 87.0878 225.177 70.7348 214.876 60.8633 210.061 56.249 203.648 53.6757 196.979 53.6817Z" stroke="#FFFFFF" stroke-width="17.2401" fill="#215F9A" transform="matrix(1.00403 0 0 1 437 404)"/></g></svg>