<svg width="249" height="249" xmlns="http://www.w3.org/2000/svg" xmlns:xlink="http://www.w3.org/1999/xlink" xml:space="preserve" overflow="hidden"><g transform="translate(-221 -93)"><path d="M449.25 182.484C449.25 200.39 434.734 214.906 416.828 214.906 398.922 214.906 384.406 200.39 384.406 182.484 384.406 164.578 398.922 150.062 416.828 150.062 434.734 150.062 449.25 164.578 449.25 182.484Z" stroke="#FFFFFF" stroke-width="6.70051" fill="#215F9A"/><path d="M267.688 246.031C267.688 250.181 269.244 253.812 271.837 256.666 265.612 253.553 262.5 248.106 262.5 238.25 262.5 219.056 280.138 216.462 304 214.906L304 250.7 298.812 240.844C295.441 234.1 290.513 230.469 283.25 230.469 274.691 230.469 267.688 237.472 267.688 246.031ZM244.344 277.156C244.344 282.862 249.012 287.531 254.719 287.531L306.594 287.531C310.484 287.531 314.375 285.197 315.931 281.566 317.747 277.934 316.709 273.784 314.634 270.672L311.003 264.188 308.928 260.297 371.956 242.919 374.291 255.628C374.55 257.703 375.587 259.778 377.144 261.075L400.487 284.419C402.562 286.494 405.156 287.531 407.75 287.531 410.344 287.531 412.938 286.494 415.013 284.419 419.163 280.269 419.163 273.784 415.013 269.634L394.003 248.625 386.741 207.644C385.962 202.716 381.553 199.084 376.625 199.084L304 204.272C283.769 205.569 252.125 207.644 252.125 237.991 252.125 254.331 259.388 262.372 269.503 266.522L254.719 266.522C249.012 266.781 244.344 271.45 244.344 277.156Z" stroke="#FFFFFF" stroke-width="6.70051" fill="#215F9A"/></g></svg>